<svg width="44" height="44" viewBox="0 0 44 44" fill="none" xmlns="http://www.w3.org/2000/svg">
<path fill-rule="evenodd" clip-rule="evenodd" d="M44 21.9996C44 34.15 34.1506 44 21.9996 44C9.84936 44 0 34.15 0 21.9996C0 9.85095 9.84936 6.541e-06 21.9996 6.541e-06C27.8238 -0.00449161 33.4137 2.31116 37.5564 6.44405C41.6751 10.5527 43.9955 16.1538 44 21.9996Z" fill="#FF6600"/>
<path fill-rule="evenodd" clip-rule="evenodd" d="M21.3749 35.4814C16.2118 35.2367 11.6423 32.0673 9.60431 27.3181C7.56636 22.5681 8.42182 17.0578 11.8 13.1634C12.1297 12.7846 12.7018 12.7468 13.0778 13.0806C13.0894 13.0905 13.101 13.1013 13.1117 13.1121L15.4491 15.4493C15.7743 15.7696 15.801 16.286 15.5114 16.6386C13.1491 19.4895 12.937 23.5739 14.9919 26.6587C17.0468 29.748 20.8821 31.1281 24.4341 30.0548C27.9851 28.9824 30.416 25.7096 30.4169 21.9995C30.4116 19.9942 29.6827 18.0591 28.3665 16.5568C28.0573 16.2176 28.0573 15.6958 28.3665 15.3566L30.7546 12.9888C31.0942 12.6263 31.6609 12.6101 32.0209 12.9528C32.0334 12.9645 32.045 12.9762 32.0565 12.9888C35.6922 17.021 36.5433 22.8767 34.2077 27.7931C31.873 32.7096 26.8115 35.7414 21.3749 35.4805V35.4814Z" fill="white"/>
</svg>
